<svg height="512pt" viewBox="-10 0 512 512" width="512pt" xmlns="http://www.w3.org/2000/svg"><path d="m455.789062 159.269531-136.050781-120.179687c-23.148437-8.03125-47.949219-9.089844-73.738281-9.089844-127.03125 0-236 108.96875-236 236s108.96875 236 236 236 236-108.96875 236-236c0-38.519531-9.46875-74.839844-26.210938-106.730469zm0 0" fill="#76e2f8"/><path d="m476 100c0 15.25-8.46875 36.769531-20.210938 59.269531-26.539062 50.851563-69.789062 106.730469-69.789062 106.730469s-40.628906-52.5-67.289062-102.019531c-13.019532-24.179688-22.710938-47.671875-22.710938-63.980469 0-49.800781 40.390625-90 90-90 49.710938 0 90 40.289062 90 90zm0 0" fill="#ff637b"/><path d="m386 60c22.058594 0 40 17.941406 40 40s-17.941406 40-40 40-40-17.941406-40-40 17.941406-40 40-40zm0 0" fill="#ececf1"/><path d="m492 266c0-37.011719-8.640625-73.777344-24.988281-106.695312 12.765625-25.273438 18.988281-44.710938 18.988281-59.304688 0-55.140625-44.859375-100-100-100-25.730469 0-50.550781 10.03125-69.070312 27.707031-23.878907-7.058593-48.988282-7.707031-70.929688-7.707031-77.660156 0-152.261719 39.195312-199.558594 104.851562-3.226562 4.480469-2.210937 10.730469 2.269532 13.957032 4.472656 3.222656 10.722656 2.222656 13.957031-2.269532 5.945312-8.25 12.371093-16.027343 19.1875-23.34375 10.503906 12.8125 22.972656 24.28125 37.203125 34.210938-11.46875 33.777344-17.933594 70.972656-18.914063 108.59375h-79.898437c.8125-17.175781 3.703125-34.273438 8.644531-50.957031 1.566406-5.296875-1.453125-10.859375-6.75-12.429688-5.292969-1.566406-10.859375 1.453125-12.425781 6.75-6.445313 21.765625-9.714844 44.1875-9.714844 66.636719 0 132.914062 113.734375 246 246 246 132.914062 0 246-113.734375 246-246zm-371.847656 10h115.847656v70.214844c-35.722656 1.476562-69.710938 10.863281-99.46875 27.460937-9.855469-30.527343-15.453125-63.886719-16.378906-97.675781zm115.847656 90.230469v124.941406c-43.710938-7.195313-76.011719-56.792969-92.601562-98.394531 27.46875-15.957032 59.15625-25.035156 92.601562-26.546875zm20 124.925781v-124.925781c32.007812 1.453125 62.523438 9.875 89.207031 24.625-20.722656 57.222656-53.898437 94.347656-89.207031 100.300781zm95.496094-119.636719c-28.8125-15.242187-61.429688-23.886719-95.496094-25.304687v-70.226563h109.859375c-.824219 33.164063-5.730469 65.785157-14.363281 95.53125zm-95.496094-331.453125c15.101562.222656 31.25 1.144532 46.714844 4.605469-10.847656 16.292969-16.714844 35.457031-16.714844 55.328125 0 14.335938 6 33.363281 18.300781 57.941406-15.582031 4.453125-31.761719 7.070313-48.300781 7.824219zm-20 .761719v124.941406c-33.445312-1.511719-65.136719-10.589843-92.601562-26.546875 16.597656-41.621094 48.914062-91.203125 92.601562-98.394531zm20 144.960937c19.859375-.828124 39.265625-4.125 57.886719-9.832031 17.433593 31.097657 38.984375 61.949219 52.171875 80.042969h-110.058594zm199.082031-4.488281c9.828125 23.613281 15.492188 48.996094 16.664063 74.699219h-65.800782c12.433594-17.058594 32.300782-45.457031 49.136719-74.699219zm-69.082031-161.300781c44.113281 0 80 35.886719 80 80 0 36.660156-58.152344 119.722656-80 149.34375-21.773438-29.519531-80-112.628906-80-149.34375 0-45.058594 36.738281-80 80-80zm-289.832031 79.089844c23.421875-21.207032 50.605469-37.285156 79.726562-47.273438-19.308593 18.488282-36.378906 44.425782-49.539062 76.199219-11.515625-8.542969-21.628907-18.230469-30.1875-28.925781zm40.363281 59.234375c29.757812 16.597656 63.746094 25.984375 99.46875 27.460937v70.214844h-115.847656c.925781-33.789062 6.523437-67.148438 16.378906-97.675781zm-116.289062 117.675781h79.902343c.980469 37.621094 7.445313 74.816406 18.914063 108.59375-14.375 10.03125-26.949219 21.636719-37.523438 34.605469-35.78125-38.292969-58.773437-88.585938-61.292968-143.199219zm75.625 157.285156c8.621093-10.84375 18.835937-20.660156 30.488281-29.300781 13.238281 31.957031 30.429687 58.011719 49.875 76.519531-29.882813-10.066406-57.210938-26.339844-80.363281-47.21875zm217.910156 47.878906c21.949218-21.5 37.949218-50.921874 48.742187-79.460937 12.945313 9.160156 24.207031 19.742187 33.617188 31.582031-23.667969 21.339844-51.695313 37.871094-82.359375 47.878906zm96.6875-61.960937c-11.496094-14.109375-25.320313-26.5625-41.234375-37.140625 10.074219-32.859375 15.761719-69.191406 16.636719-106.074219h85.886718c-2.515625 54.617188-25.507812 104.917969-61.289062 143.214844zm0 0"/><path d="m386 150c27.570312 0 50-22.429688 50-50s-22.429688-50-50-50-50 22.429688-50 50 22.429688 50 50 50zm0-80c16.542969 0 30 13.457031 30 30s-13.457031 30-30 30-30-13.457031-30-30 13.457031-30 30-30zm0 0"/><path d="m24 165c0 5.519531 4.480469 10 10 10s10-4.480469 10-10-4.480469-10-10-10-10 4.480469-10 10zm0 0"/></svg>